<svg xmlns="http://www.w3.org/2000/svg" version="1.1" xmlns:xlink="http://www.w3.org/1999/xlink" width="200" height="200"><svg xmlns="http://www.w3.org/2000/svg" version="1.1" xmlns:xlink="http://www.w3.org/1999/xlink" viewBox="0 0 200 200"><rect width="200" height="200" fill="url('#gradient')"></rect><defs><linearGradient id="SvgjsLinearGradient1001" gradientTransform="rotate(45 0.5 0.5)"><stop offset="0%" stop-color="#6abbff"></stop><stop offset="100%" stop-color="#6abbff"></stop></linearGradient></defs><g><g fill="#ffbc3b" transform="matrix(3.5804195804195804,0,0,3.5804195804195804,6.156266736817528,118.00880421458426)" stroke="#60b7ff" stroke-width="0.2"><path d="M10.03-8.30L10.03-5.66L4.50-5.66L4.50 0L1.07 0L1.07-14.22L10.59-14.22L10.59-11.57L4.50-11.57L4.50-8.30L10.03-8.30ZM11.25-4.82L11.24-5.38Q11.24-6.96 11.86-8.20Q12.47-9.43 13.62-10.10Q14.78-10.76 16.33-10.76L16.33-10.76Q18.70-10.76 20.07-9.29Q21.44-7.82 21.44-5.29L21.44-5.29L21.44-5.18Q21.44-2.71 20.06-1.25Q18.69 0.20 16.35 0.20L16.35 0.20Q14.09 0.20 12.72-1.16Q11.36-2.51 11.25-4.82L11.25-4.82ZM14.54-5.77L14.53-5.18Q14.53-3.71 14.99-3.03Q15.45-2.34 16.35-2.34L16.35-2.34Q18.11-2.34 18.14-5.05L18.14-5.05L18.14-5.38Q18.14-8.22 16.33-8.22L16.33-8.22Q14.68-8.22 14.54-5.77L14.54-5.77ZM29.34-10.64L29.28-7.59L28.19-7.67Q26.64-7.67 26.20-6.69L26.20-6.69L26.20 0L22.91 0L22.91-10.57L26.00-10.57L26.10-9.21Q26.93-10.76 28.42-10.76L28.42-10.76Q28.95-10.76 29.34-10.64L29.34-10.64ZM29.89-5.24L29.89-5.36Q29.89-6.96 30.42-8.19Q30.95-9.42 31.93-10.09Q32.92-10.76 34.23-10.76L34.23-10.76Q35.88-10.76 36.81-9.65L36.81-9.65L36.92-10.57L39.91-10.57L39.91-0.40Q39.91 1.00 39.26 2.03Q38.61 3.06 37.38 3.61Q36.15 4.16 34.53 4.16L34.53 4.16Q33.37 4.16 32.28 3.72Q31.19 3.28 30.62 2.58L30.62 2.58L31.99 0.64Q32.91 1.73 34.41 1.73L34.41 1.73Q36.60 1.73 36.60-0.52L36.60-0.52L36.60-0.85Q35.65 0.20 34.21 0.20L34.21 0.20Q32.28 0.20 31.08-1.28Q29.89-2.76 29.89-5.24L29.89-5.24ZM33.19-5.16L33.19-5.16Q33.19-3.86 33.68-3.10Q34.17-2.34 35.05-2.34L35.05-2.34Q36.11-2.34 36.60-3.06L36.60-3.06L36.60-7.50Q36.12-8.22 35.07-8.22L35.07-8.22Q34.19-8.22 33.69-7.44Q33.19-6.65 33.19-5.16ZM46.89 0.20L46.89 0.20Q44.46 0.20 42.96-1.25Q41.46-2.71 41.46-5.03L41.46-5.03L41.46-5.30Q41.46-6.92 42.06-8.16Q42.66-9.40 43.81-10.08Q44.96-10.76 46.54-10.76L46.54-10.76Q48.77-10.76 50.06-9.38Q51.35-8.00 51.35-5.53L51.35-5.53L51.35-4.25L44.80-4.25Q44.98-3.36 45.58-2.85Q46.17-2.34 47.12-2.34L47.12-2.34Q48.68-2.34 49.56-3.44L49.56-3.44L51.06-1.66Q50.45-0.81 49.32-0.31Q48.19 0.20 46.89 0.20ZM46.52-8.22L46.52-8.22Q45.08-8.22 44.80-6.31L44.80-6.31L48.13-6.31L48.13-6.56Q48.14-7.35 47.72-7.79Q47.30-8.22 46.52-8.22Z"></path></g></g></svg><style>@media (prefers-color-scheme: light) { :root { filter: none; } }
@media (prefers-color-scheme: dark) { :root { filter: none; } }
</style></svg>