<svg width="48" height="47" viewBox="0 0 48 47" fill="none" xmlns="http://www.w3.org/2000/svg">
<path d="M14.1699 17.1459H17.4717C17.5219 17.1459 17.591 17.1694 17.6592 17.2523C17.7281 17.3362 17.7831 17.4686 17.7832 17.6312V30.348C17.7831 30.5107 17.7281 30.643 17.6592 30.7269C17.591 30.8098 17.5218 30.8334 17.4717 30.8334H14.1699C14.1198 30.8334 14.0515 30.8097 13.9834 30.7269C13.9144 30.643 13.8595 30.5107 13.8594 30.348V17.6312C13.8595 17.4685 13.9145 17.3362 13.9834 17.2523C14.0515 17.1695 14.1198 17.1459 14.1699 17.1459Z" fill="#FD5528" stroke="#D93E17"/>
<path d="M10.6748 20.2377H11.707C11.7195 20.2377 11.7541 20.243 11.7979 20.2963C11.8424 20.3505 11.8828 20.4416 11.8828 20.559V27.4203C11.8827 27.5377 11.8424 27.6288 11.7979 27.683C11.7541 27.7362 11.7195 27.7416 11.707 27.7416H10.6748C10.662 27.7415 10.6273 27.7357 10.584 27.683C10.5395 27.6288 10.5001 27.5375 10.5 27.4203V20.559C10.5 20.4417 10.5395 20.3505 10.584 20.2963C10.6274 20.2435 10.662 20.2378 10.6748 20.2377Z" fill="#FD5528" stroke="#D93E17"/>
<path d="M27.1299 22.7504V25.2289H19.8711V22.7504H27.1299Z" fill="#FD5528" stroke="#D93E17"/>
<path d="M29.5273 17.1459H32.8291C32.8793 17.1459 32.9485 17.1694 33.0166 17.2523C33.0855 17.3362 33.1405 17.4686 33.1406 17.6312V30.348C33.1405 30.5106 33.0855 30.643 33.0166 30.7269C32.9484 30.8099 32.8792 30.8334 32.8291 30.8334H29.5273C29.4772 30.8334 29.4089 30.8097 29.3408 30.7269C29.2719 30.643 29.2169 30.5107 29.2168 30.348V17.6312C29.2169 17.4685 29.2719 17.3362 29.3408 17.2523C29.4089 17.1695 29.4772 17.1459 29.5273 17.1459Z" fill="#FD5528" stroke="#D93E17"/>
<path d="M35.292 20.2377H36.3242C36.3367 20.2377 36.3713 20.243 36.415 20.2963C36.4596 20.3505 36.499 20.4416 36.499 20.559V27.4203C36.499 27.5377 36.4596 27.6288 36.415 27.683C36.3713 27.7362 36.3368 27.7416 36.3242 27.7416H35.292C35.2792 27.7415 35.2445 27.7357 35.2012 27.683C35.1567 27.6288 35.1173 27.5375 35.1172 27.4203V20.559C35.1172 20.4417 35.1567 20.3505 35.2012 20.2963C35.2445 20.2435 35.2792 20.2378 35.292 20.2377Z" fill="#FD5528" stroke="#D93E17"/>
<ellipse cx="24" cy="23.5" rx="24" ry="23.5" fill="#FD5528" fill-opacity="0.2"/>
</svg>
