<svg width="683" height="357" viewBox="0 0 683 357" fill="none" xmlns="http://www.w3.org/2000/svg">
<path d="M189.027 0H105.492C94.1697 0 84.9893 10.7333 84.9893 23.9588V333.041C84.9893 346.265 94.1697 357 105.492 357H189.028C200.353 357 209.533 346.265 209.533 333.041V23.9588C209.533 10.7333 200.351 0 189.027 0Z" fill="black" fill-opacity="0.35"/>
<path d="M43.186 75.1499H17.0788C7.65166 75.1499 0 84.0959 0 95.1176V261.879C0 272.903 7.65166 281.847 17.0788 281.847H43.186C52.6132 281.847 60.2648 272.901 60.2648 261.879V95.1176C60.2648 84.0959 52.6132 75.1499 43.186 75.1499Z" fill="black" fill-opacity="0.35"/>
<path d="M445.989 136.225H237.062V220.774H445.989V136.225Z" fill="black" fill-opacity="0.35"/>
<path d="M577.514 0H493.979C482.656 0 473.475 10.7333 473.475 23.9588V333.041C473.475 346.265 482.655 357 493.979 357H577.514C588.837 357 598.018 346.265 598.018 333.041V23.9588C598.018 10.7333 588.838 0 577.514 0Z" fill="black" fill-opacity="0.35"/>
<path d="M665.921 75.1499H639.815C630.387 75.1499 622.736 84.0959 622.736 95.1176V261.879C622.736 272.903 630.388 281.847 639.815 281.847H665.921C675.35 281.847 683 272.901 683 261.879V95.1176C683 84.0959 675.348 75.1499 665.921 75.1499Z" fill="black" fill-opacity="0.35"/>
</svg>
